<svg xmlns="http://www.w3.org/2000/svg" viewBox="0 0 400 120" fill="none">
  <!-- Cross mark -->
  <rect x="0" y="0" width="8" height="120" fill="#000"/>
  <rect x="0" y="32" width="48" height="8" fill="#000"/>

  <!-- R -->
  <path d="M72 16h32c14 0 24 10 24 24s-10 24-24 24H96l34 40h-22L74 64V104H72V16zm4 4v40h28c12 0 20-8 20-20s-8-20-20-20H76z" fill="#000"/>

  <!-- C -->
  <path d="M164 16h36v4h-32c-14 0-24 12-24 28v24c0 16 10 28 24 28h32v4h-36c-18 0-28-14-28-32V48c0-18 10-32 28-32z" fill="#000"/>

  <!-- D -->
  <path d="M220 16h28c20 0 34 16 34 36v16c0 20-14 36-34 36h-28V16zm4 4v84h24c18 0 30-14 30-32V52c0-18-12-32-30-32h-24z" fill="#000"/>

  <!-- Divider line -->
  <rect x="302" y="16" width="2" height="88" fill="#000"/>

  <!-- Tagline stacked -->
  <text x="318" y="40" font-family="'Inter','Helvetica Neue',Arial,sans-serif" font-size="11" font-weight="700" letter-spacing="3" text-transform="uppercase" fill="#000">REFLECTING</text>
  <text x="318" y="60" font-family="'Inter','Helvetica Neue',Arial,sans-serif" font-size="11" font-weight="700" letter-spacing="3" text-transform="uppercase" fill="#000">CHRIST</text>
  <text x="318" y="80" font-family="'Inter','Helvetica Neue',Arial,sans-serif" font-size="11" font-weight="700" letter-spacing="3" text-transform="uppercase" fill="#000">DAILY</text>
</svg>
